<svg xmlns="http://www.w3.org/2000/svg" xmlns:xlink="http://www.w3.org/1999/xlink" xmlns:lucid="lucid" width="1602" height="365.48"><g transform="translate(-89 -240)" lucid:page-tab-id="0_0"><path d="M0 0h1870.87v1322.83H0z" fill="#fff"/><path d="M340 400c0 22.1-17.9 40-40 40s-40-17.9-40-40 17.9-40 40-40 40 17.9 40 40zm-68.3-28.3l56.6 56.6m-56.6 0l56.6-56.6M660 266c0-3.3 2.7-6 6-6h88c3.3 0 6 2.7 6 6v48c0 3.3-2.7 6-6 6h-88c-3.3 0-6-2.7-6-6z" stroke="#5e5e5e" stroke-width="3" fill="#fff"/><use xlink:href="#a" transform="matrix(1,0,0,1,665,265) translate(31.419753086419753 30.277777777777775)"/><path d="M660 376c0-3.3 2.7-6 6-6h88c3.3 0 6 2.7 6 6v48c0 3.3-2.7 6-6 6h-88c-3.3 0-6-2.7-6-6z" stroke="#5e5e5e" stroke-width="3" fill="#fff"/><use xlink:href="#b" transform="matrix(1,0,0,1,665,375) translate(35.15432098765432 30.277777777777775)"/><path d="M660 486c0-3.3 2.7-6 6-6h88c3.3 0 6 2.7 6 6v48c0 3.3-2.7 6-6 6h-88c-3.3 0-6-2.7-6-6z" stroke="#5e5e5e" stroke-width="3" fill="#fff"/><use xlink:href="#c" transform="matrix(1,0,0,1,665,485) translate(31.419753086419753 30.277777777777775)"/><path d="M460 371.67c0-3.32 2.7-6 6-6h128c3.3 0 6 2.68 6 6v56.66c0 3.32-2.7 6-6 6H466c-3.3 0-6-2.68-6-6z" stroke="#5e5e5e" stroke-width="3" fill="#fff"/><use xlink:href="#d" transform="matrix(1,0,0,1,465,370.6666666666667) translate(18.17901234567902 17.777777777777775)"/><use xlink:href="#e" transform="matrix(1,0,0,1,465,370.6666666666667) translate(42.839506172839506 44.44444444444444)"/><path d="M460 481.67c0-3.32 2.7-6 6-6h128c3.3 0 6 2.68 6 6v56.66c0 3.32-2.7 6-6 6H466c-3.3 0-6-2.68-6-6z" stroke="#5e5e5e" stroke-width="3" fill="#fff"/><use xlink:href="#f" transform="matrix(1,0,0,1,465,480.6666666666667) translate(3.6111111111111214 17.777777777777775)"/><use xlink:href="#g" transform="matrix(1,0,0,1,465,480.6666666666667) translate(52.098765432098766 44.44444444444444)"/><path d="M602.5 400H640" stroke="#5e5e5e" stroke-width="2" fill="none"/><path d="M602.53 401h-1.03v-2h1.03z" fill="#5e5e5e"/><path d="M655.26 400L641 404.64v-9.28z" stroke="#5e5e5e" stroke-width="2" fill="#5e5e5e"/><path d="M602.5 510H640" stroke="#5e5e5e" stroke-width="2" fill="none"/><path d="M602.53 511h-1.03v-2h1.03z" fill="#5e5e5e"/><path d="M655.26 510L641 514.64v-9.28z" stroke="#5e5e5e" stroke-width="2" fill="#5e5e5e"/><path d="M342.5 400H394c3.3 0 6 2.7 6 6v98c0 3.3 2.7 6 6 6h34" stroke="#5e5e5e" stroke-width="2" fill="none"/><path d="M342.53 401h-1.1l.07-.98-.03-1.02h1.06z" fill="#5e5e5e"/><path d="M455.26 510L441 514.64v-9.28z" stroke="#5e5e5e" stroke-width="2" fill="#5e5e5e"/><path d="M342.5 400H440" stroke="#5e5e5e" stroke-width="2" fill="none"/><path d="M342.53 401h-1.1l.07-.98-.03-1.02h1.06z" fill="#5e5e5e"/><path d="M455.26 400L441 404.64v-9.28z" stroke="#5e5e5e" stroke-width="2" fill="#5e5e5e"/><path d="M342.5 400H394c3.3 0 6-2.7 6-6v-98c0-3.3 2.7-6 6-6h234" stroke="#5e5e5e" stroke-width="2" fill="none"/><path d="M342.53 401h-1.1l.07-.98-.03-1.02h1.06z" fill="#5e5e5e"/><path d="M655.26 290L641 294.64v-9.28z" stroke="#5e5e5e" stroke-width="2" fill="#5e5e5e"/><path d="M1000 371.67c0-3.32 2.7-6 6-6h108c3.3 0 6 2.68 6 6v56.96c0 3.3-2.7 6-6 6h-108c-3.3 0-6-2.7-6-6z" stroke="#5e5e5e" stroke-width="3" fill="#fff"/><use xlink:href="#h" transform="matrix(1,0,0,1,1005,370.6666666666667) translate(6.296296296296305 17.777777777777775)"/><use xlink:href="#i" transform="matrix(1,0,0,1,1005,370.6666666666667) translate(16.14197530864199 44.44444444444444)"/><path d="M920 400c0 22.1-17.9 40-40 40s-40-17.9-40-40 17.9-40 40-40 40 17.9 40 40zm-68.3-28.3l56.6 56.6m-56.6 0l56.6-56.6" stroke="#5e5e5e" stroke-width="3" fill="#fff"/><path d="M762.5 290H874c3.3 0 6 2.7 6 6v44" stroke="#5e5e5e" stroke-width="2" fill="none"/><path d="M762.53 291h-1.03v-2h1.03z" fill="#5e5e5e"/><path d="M880 355.26L875.36 341h9.28z" stroke="#5e5e5e" stroke-width="2" fill="#5e5e5e"/><use xlink:href="#j" transform="matrix(1,0,0,1,861.6296296296296,339.3333333333335) translate(0 14.222222222222223)"/><path d="M762.5 510H874c3.3 0 6-2.7 6-6v-44" stroke="#5e5e5e" stroke-width="2" fill="none"/><path d="M762.53 511h-1.03v-2h1.03z" fill="#5e5e5e"/><path d="M880 444.74l4.64 14.26h-9.28z" stroke="#5e5e5e" stroke-width="2" fill="#5e5e5e"/><use xlink:href="#j" transform="matrix(1,0,0,1,861.6296296296296,439.66666666666686) translate(0 14.222222222222223)"/><path d="M762.5 400H820" stroke="#5e5e5e" stroke-width="2" fill="none"/><path d="M762.53 401h-1.03v-2h1.03z" fill="#5e5e5e"/><path d="M835.26 400L821 404.64v-9.28z" stroke="#5e5e5e" stroke-width="2" fill="#5e5e5e"/><use xlink:href="#j" transform="matrix(1,0,0,1,829.5481481481485,374.66666666666663) translate(0 14.222222222222223)"/><path d="M922.5 400h37.43c.04 0 .07.03.07.07 0 .04.03.08.07.08H980" stroke="#5e5e5e" stroke-width="2" fill="none"/><path d="M922.53 401h-1.1l.07-.98-.03-1.02h1.06z" fill="#5e5e5e"/><path d="M995.26 400.15L981 404.78v-9.27z" stroke="#5e5e5e" stroke-width="2" fill="#5e5e5e"/><path d="M240 400H101" stroke="#5e5e5e" stroke-width="2" fill="none"/><path d="M255.26 400L241 404.64v-9.28z" stroke="#5e5e5e" stroke-width="2" fill="#5e5e5e"/><path d="M101.03 400H100" stroke="#5e5e5e" stroke-width="2" fill="none"/><use xlink:href="#k" transform="matrix(1,0,0,1,247.01758293898598,404.00000000000006) translate(0 17.777777777777775)"/><use xlink:href="#l" transform="matrix(1,0,0,1,116.14151614711469,342.66666666666663) translate(0 17.777777777777775)"/><use xlink:href="#m" transform="matrix(1,0,0,1,116.14151614711469,342.66666666666663) translate(0 44.44444444444444)"/><path d="M1122.5 400.15h27.43c.04 0 .07-.04.07-.08s.03-.07.07-.07h9.93" stroke="#5e5e5e" stroke-width="2" fill="none"/><path d="M1122.53 401.15h-1.03v-2h1.03z" fill="#5e5e5e"/><path d="M1175.26 400l-14.26 4.64v-9.28z" stroke="#5e5e5e" stroke-width="2" fill="#5e5e5e"/><path d="M1180 371.52c0-3.3 2.7-6 6-6h108c3.3 0 6 2.7 6 6v56.96c0 3.3-2.7 6-6 6h-108c-3.3 0-6-2.7-6-6z" stroke="#5e5e5e" stroke-width="3" fill="#fff"/><use xlink:href="#n" transform="matrix(1,0,0,1,1185,370.5208333333333) translate(26.666666666666668 17.77777777777778)"/><use xlink:href="#o" transform="matrix(1,0,0,1,1185,370.5208333333333) translate(30.987654320987655 44.44444444444444)"/><path d="M1360 371.52c0-3.3 2.7-6 6-6h108c3.3 0 6 2.7 6 6v56.96c0 3.3-2.7 6-6 6h-108c-3.3 0-6-2.7-6-6z" stroke="#5e5e5e" stroke-width="3" fill="#fff"/><use xlink:href="#p" transform="matrix(1,0,0,1,1365,370.5208333333333) translate(26.666666666666668 32.52777777777778)"/><path d="M1302.5 400h37.5" stroke="#5e5e5e" stroke-width="2" fill="none"/><path d="M1302.53 401h-1.03v-2h1.03z" fill="#5e5e5e"/><path d="M1355.26 400l-14.26 4.64v-9.28z" stroke="#5e5e5e" stroke-width="2" fill="#5e5e5e"/><path d="M1482.5 400h159" stroke="#5e5e5e" stroke-width="2" fill="none"/><path d="M1482.53 401h-1.03v-2h1.03z" fill="#5e5e5e"/><path d="M1656.76 400l-14.26 4.64v-9.28z" stroke="#5e5e5e" stroke-width="2" fill="#5e5e5e"/><g><use xlink:href="#q" transform="matrix(1,0,0,1,1533.7746913580247,342.66666666666663) translate(0 17.77777777777778)"/><use xlink:href="#r" transform="matrix(1,0,0,1,1533.7746913580247,342.66666666666663) translate(0 44.44444444444444)"/></g><path d="M300 460v128.48c0 3.3 2.7 6 6 6h1250.6c3.3 0 6-2.7 6-6V401" stroke="#5e5e5e" stroke-width="2" fill="none"/><path d="M300 444.74l4.64 14.26h-9.28z" stroke="#5e5e5e" stroke-width="2" fill="#5e5e5e"/><path d="M1562.6 401.03V400" stroke="#5e5e5e" stroke-width="2" fill="none"/><defs><path fill="#333" d="M194 0L95-120 63-95V0H30v-248h33v124l119-124h40L117-140 236 0h-42" id="s"/><path fill="#333" d="M115-194c55 1 70 41 70 98S169 2 115 4C84 4 66-9 55-30l1 105H24l-1-265h31l2 30c10-21 28-34 59-34zm-8 174c40 0 45-34 45-75s-6-73-45-74c-42 0-51 32-51 76 0 43 10 73 51 73" id="t"/><g id="a"><use transform="matrix(0.061728395061728385,0,0,0.061728395061728385,0,0)" xlink:href="#s"/><use transform="matrix(0.061728395061728385,0,0,0.061728395061728385,14.814814814814813,0)" xlink:href="#t"/></g><path fill="#333" d="M24-231v-30h32v30H24zM24 0v-190h32V0H24" id="u"/><g id="b"><use transform="matrix(0.061728395061728385,0,0,0.061728395061728385,0,0)" xlink:href="#s"/><use transform="matrix(0.061728395061728385,0,0,0.061728395061728385,14.814814814814813,0)" xlink:href="#u"/></g><path fill="#333" d="M85-194c31 0 48 13 60 33l-1-100h32l1 261h-30c-2-10 0-23-3-31C134-8 116 4 85 4 32 4 16-35 15-94c0-66 23-100 70-100zm9 24c-40 0-46 34-46 75 0 40 6 74 45 74 42 0 51-32 51-76 0-42-9-74-50-73" id="v"/><g id="c"><use transform="matrix(0.061728395061728385,0,0,0.061728395061728385,0,0)" xlink:href="#s"/><use transform="matrix(0.061728395061728385,0,0,0.061728395061728385,14.814814814814813,0)" xlink:href="#v"/></g><path fill="#333" d="M117-194c89-4 53 116 60 194h-32v-121c0-31-8-49-39-48C34-167 62-67 57 0H25l-1-190h30c1 10-1 24 2 32 11-22 29-35 61-36" id="w"/><path fill="#333" d="M59-47c-2 24 18 29 38 22v24C64 9 27 4 27-40v-127H5v-23h24l9-43h21v43h35v23H59v120" id="x"/><path fill="#333" d="M100-194c63 0 86 42 84 106H49c0 40 14 67 53 68 26 1 43-12 49-29l28 8c-11 28-37 45-77 45C44 4 14-33 15-96c1-61 26-98 85-98zm52 81c6-60-76-77-97-28-3 7-6 17-6 28h103" id="y"/><path fill="#333" d="M177-190C167-65 218 103 67 71c-23-6-38-20-44-43l32-5c15 47 100 32 89-28v-30C133-14 115 1 83 1 29 1 15-40 15-95c0-56 16-97 71-98 29-1 48 16 59 35 1-10 0-23 2-32h30zM94-22c36 0 50-32 50-73 0-42-14-75-50-75-39 0-46 34-46 75s6 73 46 73" id="z"/><path fill="#333" d="M114-163C36-179 61-72 57 0H25l-1-190h30c1 12-1 29 2 39 6-27 23-49 58-41v29" id="A"/><path fill="#333" d="M141-36C126-15 110 5 73 4 37 3 15-17 15-53c-1-64 63-63 125-63 3-35-9-54-41-54-24 1-41 7-42 31l-33-3c5-37 33-52 76-52 45 0 72 20 72 64v82c-1 20 7 32 28 27v20c-31 9-61-2-59-35zM48-53c0 20 12 33 32 33 41-3 63-29 60-74-43 2-92-5-92 41" id="B"/><path fill="#333" d="M100-194c62-1 85 37 85 99 1 63-27 99-86 99S16-35 15-95c0-66 28-99 85-99zM99-20c44 1 53-31 53-75 0-43-8-75-51-75s-53 32-53 75 10 74 51 75" id="C"/><g id="d"><use transform="matrix(0.061728395061728385,0,0,0.061728395061728385,0,0)" xlink:href="#u"/><use transform="matrix(0.061728395061728385,0,0,0.061728395061728385,4.876543209876543,0)" xlink:href="#w"/><use transform="matrix(0.061728395061728385,0,0,0.061728395061728385,17.22222222222222,0)" xlink:href="#x"/><use transform="matrix(0.061728395061728385,0,0,0.061728395061728385,23.39506172839506,0)" xlink:href="#y"/><use transform="matrix(0.061728395061728385,0,0,0.061728395061728385,35.74074074074073,0)" xlink:href="#z"/><use transform="matrix(0.061728395061728385,0,0,0.061728395061728385,48.08641975308641,0)" xlink:href="#A"/><use transform="matrix(0.061728395061728385,0,0,0.061728395061728385,55.43209876543209,0)" xlink:href="#B"/><use transform="matrix(0.061728395061728385,0,0,0.061728395061728385,67.77777777777777,0)" xlink:href="#x"/><use transform="matrix(0.061728395061728385,0,0,0.061728395061728385,73.9506172839506,0)" xlink:href="#C"/><use transform="matrix(0.061728395061728385,0,0,0.061728395061728385,86.29629629629628,0)" xlink:href="#A"/></g><path fill="#333" d="M87 75C49 33 22-17 22-94c0-76 28-126 65-167h31c-38 41-64 92-64 168S80 34 118 75H87" id="D"/><path fill="#333" d="M27 0v-27h64v-190l-56 39v-29l58-41h29v221h61V0H27" id="E"/><path fill="#333" d="M0 4l72-265h28L28 4H0" id="F"/><path fill="#333" d="M135-143c-3-34-86-38-87 0 15 53 115 12 119 90S17 21 10-45l28-5c4 36 97 45 98 0-10-56-113-15-118-90-4-57 82-63 122-42 12 7 21 19 24 35" id="G"/><path fill="#333" d="M33-261c38 41 65 92 65 168S71 34 33 75H2C39 34 66-17 66-93S39-220 2-261h31" id="H"/><g id="e"><use transform="matrix(0.061728395061728385,0,0,0.061728395061728385,0,0)" xlink:href="#D"/><use transform="matrix(0.061728395061728385,0,0,0.061728395061728385,7.345679012345678,0)" xlink:href="#E"/><use transform="matrix(0.061728395061728385,0,0,0.061728395061728385,19.691358024691354,0)" xlink:href="#F"/><use transform="matrix(0.061728395061728385,0,0,0.061728395061728385,25.864197530864192,0)" xlink:href="#G"/><use transform="matrix(0.061728395061728385,0,0,0.061728395061728385,36.9753086419753,0)" xlink:href="#H"/></g><path fill="#333" d="M101-234c-31-9-42 10-38 44h38v23H63V0H32v-167H5v-23h27c-7-52 17-82 69-68v24" id="I"/><g id="f"><use transform="matrix(0.061728395061728385,0,0,0.061728395061728385,0,0)" xlink:href="#v"/><use transform="matrix(0.061728395061728385,0,0,0.061728395061728385,12.345679012345677,0)" xlink:href="#u"/><use transform="matrix(0.061728395061728385,0,0,0.061728395061728385,17.22222222222222,0)" xlink:href="#I"/><use transform="matrix(0.061728395061728385,0,0,0.061728395061728385,22.962962962962962,0)" xlink:href="#I"/><use transform="matrix(0.061728395061728385,0,0,0.061728395061728385,29.1358024691358,0)" xlink:href="#y"/><use transform="matrix(0.061728395061728385,0,0,0.061728395061728385,41.48148148148148,0)" xlink:href="#A"/><use transform="matrix(0.061728395061728385,0,0,0.061728395061728385,48.82716049382716,0)" xlink:href="#y"/><use transform="matrix(0.061728395061728385,0,0,0.061728395061728385,61.172839506172835,0)" xlink:href="#w"/><use transform="matrix(0.061728395061728385,0,0,0.061728395061728385,73.5185185185185,0)" xlink:href="#x"/><use transform="matrix(0.061728395061728385,0,0,0.061728395061728385,79.69135802469134,0)" xlink:href="#u"/><use transform="matrix(0.061728395061728385,0,0,0.061728395061728385,84.56790123456788,0)" xlink:href="#B"/><use transform="matrix(0.061728395061728385,0,0,0.061728395061728385,96.91358024691357,0)" xlink:href="#x"/><use transform="matrix(0.061728395061728385,0,0,0.061728395061728385,103.0864197530864,0)" xlink:href="#C"/><use transform="matrix(0.061728395061728385,0,0,0.061728395061728385,115.43209876543207,0)" xlink:href="#A"/></g><g id="g"><use transform="matrix(0.061728395061728385,0,0,0.061728395061728385,0,0)" xlink:href="#D"/><use transform="matrix(0.061728395061728385,0,0,0.061728395061728385,7.345679012345678,0)" xlink:href="#G"/><use transform="matrix(0.061728395061728385,0,0,0.061728395061728385,18.456790123456788,0)" xlink:href="#H"/></g><path fill="#333" d="M84 4C-5 8 30-112 23-190h32v120c0 31 7 50 39 49 72-2 45-101 50-169h31l1 190h-30c-1-10 1-25-2-33-11 22-28 36-60 37" id="J"/><g id="h"><use transform="matrix(0.061728395061728385,0,0,0.061728395061728385,0,0)" xlink:href="#G"/><use transform="matrix(0.061728395061728385,0,0,0.061728395061728385,11.111111111111109,0)" xlink:href="#B"/><use transform="matrix(0.061728395061728385,0,0,0.061728395061728385,23.456790123456784,0)" xlink:href="#x"/><use transform="matrix(0.061728395061728385,0,0,0.061728395061728385,29.629629629629623,0)" xlink:href="#J"/><use transform="matrix(0.061728395061728385,0,0,0.061728395061728385,41.9753086419753,0)" xlink:href="#A"/><use transform="matrix(0.061728395061728385,0,0,0.061728395061728385,49.32098765432098,0)" xlink:href="#B"/><use transform="matrix(0.061728395061728385,0,0,0.061728395061728385,61.66666666666666,0)" xlink:href="#x"/><use transform="matrix(0.061728395061728385,0,0,0.061728395061728385,67.83950617283949,0)" xlink:href="#u"/><use transform="matrix(0.061728395061728385,0,0,0.061728395061728385,72.71604938271604,0)" xlink:href="#C"/><use transform="matrix(0.061728395061728385,0,0,0.061728395061728385,85.06172839506172,0)" xlink:href="#w"/></g><path fill="#333" d="M96-169c-40 0-48 33-48 73s9 75 48 75c24 0 41-14 43-38l32 2c-6 37-31 61-74 61-59 0-76-41-82-99-10-93 101-131 147-64 4 7 5 14 7 22l-32 3c-4-21-16-35-41-35" id="K"/><g id="i"><use transform="matrix(0.061728395061728385,0,0,0.061728395061728385,0,0)" xlink:href="#I"/><use transform="matrix(0.061728395061728385,0,0,0.061728395061728385,6.1728395061728385,0)" xlink:href="#J"/><use transform="matrix(0.061728395061728385,0,0,0.061728395061728385,18.518518518518515,0)" xlink:href="#w"/><use transform="matrix(0.061728395061728385,0,0,0.061728395061728385,30.864197530864192,0)" xlink:href="#K"/><use transform="matrix(0.061728395061728385,0,0,0.061728395061728385,41.9753086419753,0)" xlink:href="#x"/><use transform="matrix(0.061728395061728385,0,0,0.061728395061728385,48.14814814814814,0)" xlink:href="#u"/><use transform="matrix(0.061728395061728385,0,0,0.061728395061728385,53.02469135802468,0)" xlink:href="#C"/><use transform="matrix(0.061728395061728385,0,0,0.061728395061728385,65.37037037037035,0)" xlink:href="#w"/></g><path fill="#333" d="M125-100v72H85v-72H15v-39h70v-72h40v72h71v39h-71" id="L"/><use transform="matrix(0.04938271604938272,0,0,0.04938271604938272,0,0)" xlink:href="#L" id="j"/><use transform="matrix(0.061728395061728385,0,0,0.061728395061728385,0,0)" xlink:href="#L" id="k"/><g id="l"><use transform="matrix(0.061728395061728385,0,0,0.061728395061728385,0,0)" xlink:href="#A"/><use transform="matrix(0.061728395061728385,0,0,0.061728395061728385,7.345679012345678,0)" xlink:href="#y"/><use transform="matrix(0.061728395061728385,0,0,0.061728395061728385,19.691358024691354,0)" xlink:href="#I"/><use transform="matrix(0.061728395061728385,0,0,0.061728395061728385,25.864197530864192,0)" xlink:href="#y"/><use transform="matrix(0.061728395061728385,0,0,0.061728395061728385,38.20987654320987,0)" xlink:href="#A"/><use transform="matrix(0.061728395061728385,0,0,0.061728395061728385,45.55555555555555,0)" xlink:href="#y"/><use transform="matrix(0.061728395061728385,0,0,0.061728395061728385,57.90123456790123,0)" xlink:href="#w"/><use transform="matrix(0.061728395061728385,0,0,0.061728395061728385,70.24691358024691,0)" xlink:href="#K"/><use transform="matrix(0.061728395061728385,0,0,0.061728395061728385,81.35802469135803,0)" xlink:href="#y"/></g><path fill="#333" d="M108 0H70L1-190h34L89-25l56-165h34" id="M"/><path fill="#333" d="M24 0v-261h32V0H24" id="N"/><path fill="#333" d="M179-190L93 31C79 59 56 82 12 73V49c39 6 53-20 64-50L1-190h34L92-34l54-156h33" id="O"/><g id="m"><use transform="matrix(0.061728395061728385,0,0,0.061728395061728385,0,0)" xlink:href="#M"/><use transform="matrix(0.061728395061728385,0,0,0.061728395061728385,11.111111111111109,0)" xlink:href="#y"/><use transform="matrix(0.061728395061728385,0,0,0.061728395061728385,23.456790123456784,0)" xlink:href="#N"/><use transform="matrix(0.061728395061728385,0,0,0.061728395061728385,28.33333333333333,0)" xlink:href="#C"/><use transform="matrix(0.061728395061728385,0,0,0.061728395061728385,40.679012345679006,0)" xlink:href="#K"/><use transform="matrix(0.061728395061728385,0,0,0.061728395061728385,51.79012345679011,0)" xlink:href="#u"/><use transform="matrix(0.061728395061728385,0,0,0.061728395061728385,56.66666666666666,0)" xlink:href="#x"/><use transform="matrix(0.061728395061728385,0,0,0.061728395061728385,62.83950617283949,0)" xlink:href="#O"/></g><path fill="#333" d="M210-169c-67 3-38 105-44 169h-31v-121c0-29-5-50-35-48C34-165 62-65 56 0H25l-1-190h30c1 10-1 24 2 32 10-44 99-50 107 0 11-21 27-35 58-36 85-2 47 119 55 194h-31v-121c0-29-5-49-35-48" id="P"/><g id="n"><use transform="matrix(0.06172839506172839,0,0,0.06172839506172839,0,0)" xlink:href="#P"/><use transform="matrix(0.06172839506172839,0,0,0.06172839506172839,18.456790123456788,0)" xlink:href="#C"/><use transform="matrix(0.06172839506172839,0,0,0.06172839506172839,30.80246913580247,0)" xlink:href="#x"/><use transform="matrix(0.06172839506172839,0,0,0.06172839506172839,36.97530864197531,0)" xlink:href="#C"/><use transform="matrix(0.06172839506172839,0,0,0.06172839506172839,49.32098765432099,0)" xlink:href="#A"/></g><g id="o"><use transform="matrix(0.06172839506172839,0,0,0.06172839506172839,0,0)" xlink:href="#v"/><use transform="matrix(0.06172839506172839,0,0,0.06172839506172839,12.345679012345679,0)" xlink:href="#A"/><use transform="matrix(0.06172839506172839,0,0,0.06172839506172839,19.691358024691358,0)" xlink:href="#u"/><use transform="matrix(0.06172839506172839,0,0,0.06172839506172839,24.5679012345679,0)" xlink:href="#M"/><use transform="matrix(0.06172839506172839,0,0,0.06172839506172839,35.67901234567901,0)" xlink:href="#y"/></g><g id="p"><use transform="matrix(0.06172839506172839,0,0,0.06172839506172839,0,0)" xlink:href="#P"/><use transform="matrix(0.06172839506172839,0,0,0.06172839506172839,18.456790123456788,0)" xlink:href="#C"/><use transform="matrix(0.06172839506172839,0,0,0.06172839506172839,30.80246913580247,0)" xlink:href="#x"/><use transform="matrix(0.06172839506172839,0,0,0.06172839506172839,36.97530864197531,0)" xlink:href="#C"/><use transform="matrix(0.06172839506172839,0,0,0.06172839506172839,49.32098765432099,0)" xlink:href="#A"/></g><g id="q"><use transform="matrix(0.06172839506172839,0,0,0.06172839506172839,0,0)" xlink:href="#C"/><use transform="matrix(0.06172839506172839,0,0,0.06172839506172839,12.345679012345679,0)" xlink:href="#J"/><use transform="matrix(0.06172839506172839,0,0,0.06172839506172839,24.691358024691358,0)" xlink:href="#x"/><use transform="matrix(0.06172839506172839,0,0,0.06172839506172839,30.864197530864196,0)" xlink:href="#t"/><use transform="matrix(0.06172839506172839,0,0,0.06172839506172839,43.20987654320987,0)" xlink:href="#J"/><use transform="matrix(0.06172839506172839,0,0,0.06172839506172839,55.55555555555555,0)" xlink:href="#x"/></g><g id="r"><use transform="matrix(0.06172839506172839,0,0,0.06172839506172839,0,0)" xlink:href="#M"/><use transform="matrix(0.06172839506172839,0,0,0.06172839506172839,11.11111111111111,0)" xlink:href="#y"/><use transform="matrix(0.06172839506172839,0,0,0.06172839506172839,23.45679012345679,0)" xlink:href="#N"/><use transform="matrix(0.06172839506172839,0,0,0.06172839506172839,28.333333333333336,0)" xlink:href="#C"/><use transform="matrix(0.06172839506172839,0,0,0.06172839506172839,40.67901234567901,0)" xlink:href="#K"/><use transform="matrix(0.06172839506172839,0,0,0.06172839506172839,51.79012345679013,0)" xlink:href="#u"/><use transform="matrix(0.06172839506172839,0,0,0.06172839506172839,56.66666666666667,0)" xlink:href="#x"/><use transform="matrix(0.06172839506172839,0,0,0.06172839506172839,62.83950617283951,0)" xlink:href="#O"/></g></defs></g></svg>